# xmcd
#
# Track frame offsets:
#	150
#	18706
#	35865
#	59063
#	77707
#	101332
#	115281
#	129739
#	151365
#	168683
#	198012
#	222508
#	249396
#	268769
#
# Disc length: 3803 seconds
#
# Revision: 1
# Processed by: cddbd v1.5.2PL0 Copyright (c) Steve Scherf et al.
# Submitted via: audiograbber 1.83.01
#
DISCID=d00ed90e
DTITLE=Spikedrivers - Seven
DYEAR=2010
DGENRE=Blues
TTITLE0=Baby Born
TTITLE1=Easy Money In Hard Times
TTITLE2=John Henry
TTITLE3=Such A Southern Place To Be
TTITLE4=Come The Glorious Day
TTITLE5=My Rooster Stopped Crowing
TTITLE6=Liquidate My Troubles
TTITLE7=Spiked River Blues
TTITLE8=Guided By Spirits
TTITLE9=Steady Rollin' Train
TTITLE10=When Love Begins
TTITLE11=Blue Skies This Way
TTITLE12=Natalie Walks
TTITLE13=Guided By Spirits (Reprise)
EXTD=
EXTT0=
EXTT1=
EXTT2=
EXTT3=
EXTT4=
EXTT5=
EXTT6=
EXTT7=
EXTT8=
EXTT9=
EXTT10=
EXTT11=
EXTT12=
EXTT13=
PLAYORDER=
